<svg width="151" height="151" viewBox="0 0 151 151" fill="none" xmlns="http://www.w3.org/2000/svg">
<path d="M81.8584 0C85.2334 7.61646 86.9219 16.4529 86.9219 26.5098C86.9219 26.6156 86.9204 26.7214 86.9199 26.8271C87.4359 26.4552 87.956 26.088 88.4824 25.7295C100.444 17.5817 114.486 13.5079 130.608 13.5078C137.956 13.5078 144.754 14.2989 151 15.8809V53.3965C150.111 52.3172 149.122 51.3292 148.031 50.4336C143.351 46.273 137.456 44.1924 130.349 44.1924C117.693 44.1924 108.245 49.6535 102.004 60.5752C96.1582 70.8053 93.0509 86.2829 92.6807 107.008C93.3298 106.068 94.01 105.153 94.7227 104.262C99.5767 98.1941 105.645 93.5136 112.926 90.2197C120.38 86.9259 128.702 85.2793 137.89 85.2793C142.47 85.2793 146.84 85.6374 151 86.3535V126.657C149.909 125.305 148.661 124.081 147.252 122.985C141.184 117.958 133.729 115.444 124.888 115.444C115.873 115.444 108.245 117.958 102.004 122.985C95.7631 127.839 92.6427 135.034 92.6426 144.568C92.6426 146.819 92.8247 148.963 93.1875 151H0V88.4658C10.5471 79.064 18.9781 70.7208 25.292 63.4355C32.2263 55.6344 37.1671 48.5266 40.1143 42.1123C43.0614 35.698 44.5351 29.2834 44.5352 22.8691C44.5352 15.2414 42.4544 9.34718 38.2939 5.18652C36.0987 2.8004 33.4036 1.07243 30.21 0H81.8584ZM52.1006 94.2656C48.8105 97.4996 45.2496 100.833 41.4141 104.262C33.6497 111.19 24.5274 118.818 14.0469 127.146H51.5254C51.1989 122.886 51.0361 118.465 51.0361 113.884C51.0361 107.028 51.3923 100.489 52.1006 94.2656ZM12.2227 0C8.53266 1.14889 5.26094 3.05009 2.4082 5.70605C1.5494 6.50563 0.747513 7.35706 0 8.25781V0H12.2227Z" fill="white"/>
</svg>
